<?xml version="1.0" encoding="utf-8"?>
<!-- Generator: Adobe Illustrator 16.0.3, SVG Export Plug-In . SVG Version: 6.00 Build 0)  -->
<svg version="1.2" baseProfile="tiny" id="Layer_3" xmlns="http://www.w3.org/2000/svg" xmlns:xlink="http://www.w3.org/1999/xlink"
	 x="0px" y="0px" width="48px" height="48px" viewBox="0 0 48 48" overflow="visible" xml:space="preserve">
<path fill-rule="evenodd" fill="#EE7B22" d="M20.3,35.693c-0.719,0.721-2.022,0.584-2.911-0.305l-4.824-4.824
	c-0.888-0.888-1.024-2.191-0.305-2.911l10.427-10.427c0.72-0.72,2.024-0.583,2.912,0.305l4.824,4.824
	c0.889,0.889,1.023,2.192,0.305,2.912L20.3,35.693z"/>
<path fill-rule="evenodd" fill="#EE7B22" d="M12.344,35.337c-0.975-0.975-1.959-1.94-2.922-2.93
	c-0.478-0.49-0.739-1.035-0.184-1.664c0.586-0.664,1.265-0.836,1.921-0.193c2.123,2.077,4.217,4.182,6.298,6.3
	c0.516,0.524,0.485,1.108-0.043,1.67c-0.667,0.707-1.302,0.57-1.916-0.034C14.437,37.446,13.395,36.388,12.344,35.337z"/>
<path fill-rule="evenodd" fill="#EE7B22" d="M33.082,22.511c3.42-3.814,5.726-8.117,5.993-13.507
	c-5.39,0.268-9.692,2.573-13.507,5.992L33.082,22.511z"/>
</svg>
