<?xml version="1.0" encoding="utf-8"?>
<!-- Generator: Adobe Illustrator 16.0.3, SVG Export Plug-In . SVG Version: 6.00 Build 0)  -->
<svg version="1.2" baseProfile="tiny" id="Layer_2" xmlns="http://www.w3.org/2000/svg" xmlns:xlink="http://www.w3.org/1999/xlink"
	 x="0px" y="0px" width="48px" height="48px" viewBox="0 0 48 48" overflow="visible" xml:space="preserve">
<circle fill="#EE7B22" cx="24.175" cy="25.118" r="2.318"/>
<g>
	<g id="XMLID_1_">
		<g>
			<path fill="#EE7B22" d="M38.44,31.082c0.279,0.55,0.239,0.96-0.181,1.42c-1.89,2.09-3.76,4.2-5.619,6.32
				c-0.311,0.34-0.961,0.65-1.44,0.64c-0.53-0.01-0.7,0.011-1.38,0.011c-1.07,0-1.8-0.261-2.391-1.101
				c-0.18-0.26-0.449-0.47-0.609-0.74c-0.84-1.359-2.07-1.8-3.58-1.529c-0.42,0.08-0.89,0.26-1.18,0.55
				c-0.69,0.67-1.28,1.439-1.9,2.18c-0.36,0.431-0.75,0.63-1.38,0.63c-1.04,0-1.04,0-1.86,0c-0.7,0.011-1.22-0.18-1.68-0.72
				c-1.83-2.12-3.68-4.22-5.53-6.31c-0.37-0.42-0.43-0.801-0.17-1.311c1.8-3.58,3.57-7.18,5.37-10.77c1.86-3.7,3.75-7.39,5.59-11.1
				c0.27-0.54,0.65-0.72,1.2-0.72c0.78,0,1.56,0,2.34,0v0.01c0.83,0,1.66-0.05,2.48,0.03c0.3,0.02,0.699,0.27,0.84,0.53
				c2.39,4.69,4.75,9.41,7.12,14.12C35.8,25.842,37.101,28.473,38.44,31.082z M32.17,24.362c0.01-0.14-0.05-0.18-0.16-0.21
				c-0.67-0.18-1.34-0.36-2-0.54c-0.109-0.03-0.159-0.08-0.199-0.17c-0.15-0.37-0.301-0.74-0.46-1.11
				c-0.051-0.11-0.03-0.19,0.029-0.29c0.34-0.6,0.681-1.2,1.03-1.8c0.05-0.1,0.05-0.15-0.03-0.23c-0.37-0.36-0.729-0.72-1.09-1.09
				c-0.09-0.09-0.149-0.09-0.25-0.03c-0.6,0.35-1.2,0.69-1.8,1.03c-0.1,0.06-0.18,0.06-0.29,0.02c-0.36-0.16-0.72-0.31-1.09-0.46
				c-0.101-0.04-0.15-0.1-0.181-0.2c-0.18-0.67-0.369-1.33-0.539-2c-0.03-0.12-0.07-0.16-0.201-0.16c-0.51,0.01-1.02,0.01-1.54,0
				c-0.11,0-0.15,0.03-0.18,0.15c-0.18,0.66-0.37,1.33-0.55,2c-0.02,0.1-0.07,0.17-0.18,0.22c-0.38,0.14-0.75,0.3-1.12,0.46
				c-0.09,0.04-0.16,0.03-0.25-0.02c-0.59-0.34-1.19-0.68-1.78-1.02c-0.14-0.08-0.21-0.07-0.31,0.04c-0.34,0.35-0.68,0.7-1.03,1.04
				c-0.1,0.09-0.12,0.15-0.04,0.27c0.35,0.6,0.68,1.2,1.03,1.8c0.05,0.09,0.06,0.16,0.01,0.26c-0.15,0.36-0.31,0.72-0.45,1.09
				c-0.05,0.13-0.12,0.18-0.24,0.21c-0.66,0.18-1.31,0.36-1.97,0.53c-0.12,0.04-0.16,0.09-0.16,0.21c0.01,0.5,0.01,1.01,0,1.51
				c0,0.12,0.03,0.181,0.16,0.21c0.67,0.181,1.33,0.37,2,0.54c0.11,0.03,0.16,0.08,0.2,0.19c0.15,0.37,0.31,0.74,0.46,1.109
				c0.02,0.04,0.03,0.08,0.05,0.12c-0.02,0.05-0.05,0.101-0.07,0.15c-0.35,0.6-0.69,1.2-1.03,1.8c-0.06,0.1-0.05,0.16,0.03,0.24
				c0.37,0.359,0.73,0.72,1.09,1.09c0.08,0.09,0.14,0.08,0.23,0.03c0.6-0.351,1.2-0.69,1.8-1.03c0.1-0.06,0.18-0.07,0.29-0.03
				c0.36,0.16,0.73,0.311,1.09,0.46c0.11,0.04,0.16,0.11,0.19,0.221c0.18,0.659,0.37,1.33,0.55,2c0.03,0.1,0.06,0.149,0.18,0.14
				c0.51,0,1.03,0,1.54,0c0.121,0.01,0.161-0.03,0.201-0.15c0.17-0.67,0.359-1.33,0.539-2c0.03-0.1,0.07-0.17,0.181-0.21
				c0.37-0.149,0.74-0.3,1.109-0.46c0.101-0.04,0.181-0.029,0.271,0.021c0.6,0.35,1.2,0.68,1.8,1.029
				c0.12,0.07,0.17,0.051,0.26-0.039c0.351-0.36,0.7-0.711,1.061-1.061c0.09-0.09,0.109-0.14,0.04-0.26
				c-0.351-0.601-0.69-1.2-1.03-1.8c-0.06-0.091-0.06-0.17-0.02-0.271c0.159-0.359,0.31-0.729,0.449-1.09
				c0.051-0.11,0.101-0.17,0.221-0.2c0.67-0.18,1.33-0.359,2-0.54c0.12-0.029,0.149-0.08,0.149-0.2
				C32.16,25.372,32.16,24.862,32.17,24.362z"/>
		</g>
		<g>
			<path fill="none" stroke="#EE7B22" stroke-linecap="round" stroke-linejoin="round" d="M24.04,8.542c0.83,0,1.66-0.05,2.48,0.03
				c0.3,0.02,0.699,0.27,0.84,0.53c2.39,4.69,4.75,9.41,7.12,14.12c1.319,2.62,2.62,5.25,3.96,7.86
				c0.279,0.55,0.239,0.96-0.181,1.42c-1.89,2.09-3.76,4.2-5.619,6.32c-0.311,0.34-0.961,0.65-1.44,0.64
				c-0.53-0.01-0.7,0.011-1.38,0.011c-1.07,0-1.8-0.261-2.391-1.101c-0.18-0.26-0.449-0.47-0.609-0.74
				c-0.84-1.359-2.07-1.8-3.58-1.529c-0.42,0.08-0.89,0.26-1.18,0.55c-0.69,0.67-1.28,1.439-1.9,2.18
				c-0.36,0.431-0.75,0.63-1.38,0.63c-1.04,0-1.04,0-1.86,0c-0.7,0.011-1.22-0.18-1.68-0.72c-1.83-2.12-3.68-4.22-5.53-6.31
				c-0.37-0.42-0.43-0.801-0.17-1.311c1.8-3.58,3.57-7.18,5.37-10.77c1.86-3.7,3.75-7.39,5.59-11.1c0.27-0.54,0.65-0.72,1.2-0.72
				c0.78,0,1.56,0,2.34,0V8.542z"/>
		</g>
	</g>
</g>
</svg>
