<?xml version="1.0" encoding="utf-8"?>
<!-- Generator: Adobe Illustrator 16.0.3, SVG Export Plug-In . SVG Version: 6.00 Build 0)  -->
<svg version="1.2" baseProfile="tiny" id="Layer_2" xmlns="http://www.w3.org/2000/svg" xmlns:xlink="http://www.w3.org/1999/xlink"
	 x="0px" y="0px" width="48px" height="48px" viewBox="0 0 48 48" overflow="visible" xml:space="preserve">
<polygon fill="none" stroke="#EE7B22" stroke-width="2" stroke-miterlimit="10" points="38.48,16.839 17.796,32.635 10.796,24.634 
	31.48,8.839 "/>
<polyline fill="none" stroke="#EE7B22" stroke-width="2" stroke-miterlimit="10" points="38.48,20.839 17.796,36.635 10.796,28.635 
	"/>
<polyline fill="none" stroke="#EE7B22" stroke-width="2" stroke-miterlimit="10" points="38.48,24.839 17.796,40.635 10.796,32.635 
	"/>
<g>
	<path fill="#EE7B22" stroke="#EE7B22" stroke-miterlimit="10" d="M24.482,24.479c-0.514,0.391-0.986,0.556-1.419,0.497
		c-0.433-0.06-0.844-0.347-1.233-0.859l-1.176-1.549c-0.394-0.518-0.561-0.992-0.503-1.424c0.058-0.431,0.345-0.839,0.859-1.223
		l0.814-0.618c0.422-0.32,0.81-0.478,1.164-0.473c0.354,0.005,0.691,0.181,1.012,0.528c0.085,0.084,0.122,0.17,0.11,0.256
		c-0.012,0.086-0.065,0.166-0.159,0.237c-0.17,0.13-0.34,0.111-0.51-0.057c-0.18-0.189-0.356-0.274-0.531-0.254
		c-0.174,0.02-0.393,0.129-0.655,0.328l-0.814,0.618c-0.239,0.178-0.406,0.347-0.499,0.507c-0.093,0.159-0.117,0.329-0.068,0.511
		c0.047,0.18,0.164,0.394,0.347,0.635l1.176,1.549c0.182,0.239,0.354,0.407,0.515,0.499c0.161,0.093,0.332,0.117,0.513,0.071
		c0.18-0.047,0.39-0.162,0.63-0.344l0.808-0.613c0.262-0.199,0.426-0.381,0.491-0.545c0.064-0.164,0.031-0.356-0.103-0.578
		c-0.116-0.209-0.089-0.377,0.082-0.507c0.095-0.071,0.185-0.103,0.271-0.09c0.086,0.012,0.159,0.07,0.217,0.175
		c0.25,0.403,0.331,0.776,0.239,1.118c-0.091,0.341-0.347,0.672-0.769,0.992L24.482,24.479z"/>
	<path fill="#EE7B22" stroke="#EE7B22" stroke-miterlimit="10" d="M30.765,19.729c-0.038,0.103-0.098,0.171-0.178,0.205
		c-0.082,0.032-0.174,0.03-0.277-0.009l-2.362-0.944l-0.942,0.715l1.166,1.535c0.144,0.188,0.121,0.354-0.067,0.497
		s-0.354,0.121-0.497-0.067l-3.037-3.998c-0.143-0.188-0.12-0.354,0.068-0.497l1.574-1.196c0.411-0.312,0.809-0.442,1.193-0.389
		c0.385,0.053,0.733,0.283,1.045,0.694l0.153,0.202c0.271,0.357,0.404,0.704,0.399,1.043c-0.006,0.337-0.146,0.652-0.42,0.941
		l1.998,0.801C30.786,19.356,30.847,19.511,30.765,19.729z M26.577,19.132l1.292-0.981c0.255-0.194,0.396-0.387,0.422-0.576
		c0.025-0.189-0.059-0.412-0.253-0.668l-0.153-0.202c-0.192-0.254-0.384-0.394-0.574-0.42c-0.189-0.027-0.413,0.057-0.669,0.251
		l-1.292,0.981L26.577,19.132z"/>
</g>
</svg>
