<?xml version="1.0" encoding="utf-8"?>
<!-- Generator: Adobe Illustrator 16.0.3, SVG Export Plug-In . SVG Version: 6.00 Build 0)  -->
<svg version="1.2" baseProfile="tiny" id="Layer_1" xmlns="http://www.w3.org/2000/svg" xmlns:xlink="http://www.w3.org/1999/xlink"
	 x="0px" y="0px" width="96px" height="96px" viewBox="0 0 96 96" overflow="visible" xml:space="preserve">
<g>
	<path fill-rule="evenodd" fill="#EE7C22" d="M48.119,4.267c2.338,0,4.688-0.134,7.008,0.071c0.845,0.075,1.994,0.767,2.369,1.5
		c6.782,13.288,13.472,26.624,20.173,39.954c3.729,7.416,7.407,14.857,11.188,22.244c0.806,1.57,0.685,2.717-0.496,4.023
		c-5.352,5.924-10.655,11.891-15.924,17.889c-0.873,0.973-2.711,1.83-4.069,1.811c-1.504-0.02-1.961,0.021-3.89,0.018
		c-3.037-0.004-5.112-0.727-6.765-3.105c-0.516-0.742-1.265-1.33-1.733-2.094c-2.363-3.857-5.866-5.09-10.13-4.322
		c-1.185,0.211-2.52,0.73-3.349,1.551c-1.931,1.91-3.604,4.082-5.367,6.16c-1.029,1.213-2.131,1.783-3.91,1.783
		c-2.92,0.008-2.92,0.008-5.258,0.016c-1.986,0.008-3.443-0.533-4.752-2.055C18.05,83.711,12.809,77.775,7.557,71.852
		c-1.045-1.18-1.209-2.256-0.484-3.693c5.106-10.145,10.127-20.331,15.221-30.48C27.55,27.202,32.886,16.766,38.107,6.272
		c0.764-1.534,1.832-2.053,3.387-2.043c2.208,0.014,4.416,0.003,6.625,0.003C48.119,4.244,48.119,4.255,48.119,4.267z M48.218,8.035
		c0,0.002,0,0.005,0,0.007c-1.103,0-2.221,0.108-3.309-0.021c-2.595-0.309-4.009,0.86-5.096,3.178
		c-2.665,5.693-5.546,11.285-8.376,16.9c-6.479,12.851-12.951,25.705-19.494,38.523c-1.025,2.01-0.945,3.598,0.608,5.287
		c3.694,4.008,7.517,7.932,10.854,12.227c2.34,3.014,4.978,4.379,8.63,3.689c1.056-0.199,2.252-0.641,2.99-1.369
		c2.121-2.094,3.959-4.475,6.084-6.563c0.75-0.736,1.983-1.27,3.037-1.352c2.519-0.193,5.075-0.225,7.588,0.008
		c1.162,0.109,2.479,0.748,3.333,1.559c1.973,1.869,3.682,4.016,5.541,6.01c2.448,2.623,7.806,2.592,10.232-0.098
		c4.306-4.768,8.549-9.596,12.845-14.373c1.131-1.256,1.425-2.6,0.687-4.113c-0.767-1.57-1.606-3.109-2.39-4.674
		c-8.727-17.444-17.456-34.888-26.171-52.34c-0.856-1.718-1.971-2.808-4.09-2.514C50.575,8.165,49.387,8.035,48.218,8.035z"/>
	<path fill-rule="evenodd" fill="#EE7C22" d="M47.829,32.583c11.702-0.022,19.736,9.16,19.968,19.634
		c0.229,10.453-9.105,20.105-19.648,19.924c-10.939-0.186-19.983-8.561-19.871-19.834C28.387,41.38,36.063,32.901,47.829,32.583z
		 M47.475,36.425c-9.728-0.647-15.964,8.262-15.74,15.922c0.271,9.295,6.48,16.266,16.285,16.254
		c8.972-0.008,16.075-7.26,16.177-16.293C64.284,44.253,57.323,35.758,47.475,36.425z"/>
	<path fill-rule="evenodd" fill="#EE7C22" d="M48.136,49.816c2.398-0.002,4.797,0.045,7.192-0.016
		c1.867-0.045,2.051,1.105,2.083,2.543c0.036,1.531-0.355,2.482-2.149,2.463c-4.859-0.051-9.721-0.043-14.579-0.006
		c-1.714,0.014-2.267-0.828-2.241-2.416c0.026-1.586,0.434-2.635,2.309-2.586C43.209,49.867,45.673,49.816,48.136,49.816z"/>
</g>
</svg>
