<?xml version="1.0" encoding="utf-8"?>
<!-- Generator: Adobe Illustrator 16.0.3, SVG Export Plug-In . SVG Version: 6.00 Build 0)  -->
<svg version="1.2" baseProfile="tiny" id="Layer_1" xmlns="http://www.w3.org/2000/svg" xmlns:xlink="http://www.w3.org/1999/xlink"
	 x="0px" y="0px" width="48px" height="48px" viewBox="0 0 48 48" xml:space="preserve">
<g id="XMLID_1_">
	<g id="XMLID_2_">
		<g>
			<path fill="#EE7B22" d="M32.93,26.58c-0.14-0.67-1.779-2.04-2.56-2.1c-0.78-0.07-2.101-0.07-2.4,0
				c-0.31,0.06-1.149,0.77-1.41,1.09c-0.25,0.31-0.26,1.12-0.109,1.939c0.05,0.28,0.149,0.54,0.27,0.78l-2.64,1.24
				c-0.05,0-0.15,0.1-0.28,0.27l-2.82-0.859c0.35-0.4,0.62-0.881,0.73-1.431c0.15-0.819,0.14-1.63-0.11-1.939
				c-0.26-0.32-1.1-1.03-1.41-1.09c-0.3-0.06-1.62-0.07-2.4,0c-0.78,0.06-2.42,1.43-2.56,2.1c-0.02,0.08-0.04,0.33-0.05,0.63
				l-1.96-0.1C9.67,18.34,11.47,7.68,24.08,7.68c12.72,0,14.41,10.66,10.86,19.43l-1.971-0.04C32.96,26.83,32.94,26.64,32.93,26.58z
				"/>
			<path fill="#EE7B22" d="M23.8,29.8c-0.55,0.73-1.64,2.8-1.64,3.9c0,0.68,0.68,1.189,0.96,1.189c0.28,0,0.82-0.859,0.96-0.859
				s0.68,0.859,0.96,0.859S26,34.38,26,33.7c0-1.36-1.65-4.17-1.92-4.17l2.64-1.24c0.55,1.03,1.66,1.67,2.42,1.8
				c0.32,0.061,1.66,0.351,2.36,0.061c0.37-0.15,1.31-1.2,1.43-1.46c0.07-0.15,0.07-1.04,0.04-1.62l1.971,0.04
				c0.239,1.87,1.31,2,1.31,3.83c0,3.35-5.3,3.659-5.88,4.239s-0.58,2.57-0.58,3.04c0,0.471-1.29,1.84-2.42,1.92
				c-1.16,0.08-2.74,0.181-3.29,0.181c-0.54,0-2.13-0.101-3.29-0.181c-1.13-0.08-2.42-1.449-2.42-1.92c0-0.47,0-2.45-0.58-3.029
				c-0.58-0.591-5.88-0.9-5.88-4.25c0-1.83,1.07-1.96,1.31-3.83l1.96,0.1c-0.02,0.58-0.02,1.35,0.05,1.48
				c0.12,0.26,1.06,1.31,1.43,1.46c0.7,0.29,2.04,0,2.36-0.061c0.58-0.1,1.38-0.5,1.96-1.149L23.8,29.8z"/>
		</g>
		<g>
		</g>
	</g>
</g>
</svg>
