<?xml version="1.0" encoding="utf-8"?>
<!-- Generator: Adobe Illustrator 16.0.3, SVG Export Plug-In . SVG Version: 6.00 Build 0)  -->
<svg version="1.2" baseProfile="tiny" id="Layer_2" xmlns="http://www.w3.org/2000/svg" xmlns:xlink="http://www.w3.org/1999/xlink"
	 x="0px" y="0px" width="48px" height="48px" viewBox="0 0 48 48" overflow="visible" xml:space="preserve">
<path fill-rule="evenodd" fill="#EE7B22" d="M17.836,35.304c3.316-3.248,9.62-9.514,12.836-12.859
	c1.366-1.421,2.652-2.212,4.835-2.024c4.885,0.423,8.519-4.913,6.505-9.025c-1.173,1.173-2.112,2.18-3.123,3.108
	c-1.37,1.255-3.405,1.146-4.377,0.121c-1.024-0.971-1.135-3.007,0.122-4.376c0.927-1.011,1.934-1.951,3.106-3.124
	c-4.111-2.012-9.447,1.62-9.025,6.506c0.189,2.182-0.603,3.467-2.022,4.833c-3.347,3.216-9.61,9.521-12.859,12.837"/>
<circle fill-rule="evenodd" fill="#EE7B22" cx="13.078" cy="36.391" r="5.547"/>
</svg>
