<?xml version="1.0" encoding="utf-8"?>
<!-- Generator: Adobe Illustrator 16.0.3, SVG Export Plug-In . SVG Version: 6.00 Build 0)  -->
<svg version="1.2" baseProfile="tiny" id="Layer_2" xmlns="http://www.w3.org/2000/svg" xmlns:xlink="http://www.w3.org/1999/xlink"
	 x="0px" y="0px" width="48px" height="48px" viewBox="0 0 48 48" overflow="visible" xml:space="preserve">
<polygon fill="none" stroke="#EE7B22" stroke-width="3" stroke-miterlimit="10" points="14.632,40.117 21.523,40.117 40.283,21.697 
	40.283,15.639 32.172,7.883 26.477,7.883 7.717,26.061 7.717,32.484 "/>
<polyline fill="none" stroke="#EE7B22" stroke-width="3" stroke-miterlimit="10" points="40.283,21.697 33.782,20.971 
	27.156,14.124 26.477,7.883 "/>
<g id="XMLID_1_">
	<g>
		<path fill="#EE7B22" d="M24.096,30.933c-0.361,0.733,0.054,0.772-0.903,1.729c-1.153,1.152-2.942-0.42-3.344-0.42
			s-1.086,0.685-1.248,0.846c-0.16,0.16-1.284-0.027-1.701-0.388c-0.214-0.185-0.444-0.383-0.644-0.559
			c-0.201-0.175-0.37-0.328-0.464-0.422c-0.188-0.188-0.614-0.682-0.982-1.108c-0.359-0.415-0.333-1.33-0.172-1.491
			c0.162-0.161,0.845-0.845,0.845-1.246c0-0.402-1.717-2.331-0.564-3.483c0.63-0.63,1.044-0.307,1.769-0.87
			c1.799-4.239,5.52-7.201,10.34-3.039l0.001,0.001C31.238,25.198,28.435,29.226,24.096,30.933z M22.853,30.771
			c0.102-0.035,0.662-0.628,0.726-0.726c0.18-0.277,0.086-1.314-0.16-1.605c-0.246-0.291-0.702-0.744-0.828-0.827
			c-0.125-0.084-0.662-0.129-0.856-0.108c-0.194,0.02-0.48,0.294-0.707,0.63c-0.414,0.606-0.228,1.438,0.036,1.817
			c0.088,0.129,0.453,0.691,0.793,0.83C22.034,30.855,22.72,30.817,22.853,30.771z M18.078,30.268
			c0.096,0.097,0.505,0.155,0.743-0.082c0.465-0.466,0.867-2.004,0.776-2.095c-0.092-0.093-1.631,0.309-2.096,0.774
			c-0.238,0.237-0.18,0.645-0.082,0.742c0.097,0.097,0.579-0.013,0.626,0.035C18.091,29.688,17.981,30.171,18.078,30.268z
			 M19.475,26.581c0.334-0.229,0.611-0.513,0.63-0.707c0.019-0.196-0.026-0.732-0.109-0.858c-0.083-0.125-0.536-0.58-0.828-0.827
			c-0.291-0.246-1.328-0.34-1.606-0.16c-0.098,0.063-0.69,0.624-0.726,0.726c-0.046,0.133-0.084,0.819-0.011,0.997
			c0.14,0.341,0.702,0.704,0.832,0.794C18.035,26.807,18.867,26.993,19.475,26.581z"/>
	</g>
	<g>
	</g>
</g>
</svg>
