<?xml version="1.0" encoding="utf-8"?>
<!-- Generator: Adobe Illustrator 16.0.3, SVG Export Plug-In . SVG Version: 6.00 Build 0)  -->
<svg version="1.2" baseProfile="tiny" id="Layer_1" xmlns="http://www.w3.org/2000/svg" xmlns:xlink="http://www.w3.org/1999/xlink"
	 x="0px" y="0px" width="48px" height="48px" viewBox="0 0 48 48" xml:space="preserve">
<g>
	<g id="XMLID_1_">
		<g>
			<path fill="#EE7B22" d="M38.44,31.083c0.28,0.55,0.24,0.96-0.181,1.42c-1.89,2.09-3.76,4.2-5.619,6.319
				c-0.311,0.341-0.96,0.65-1.44,0.641c-0.53-0.01-0.7,0.01-1.38,0.01c-1.07,0-1.8-0.26-2.39-1.1c-0.181-0.261-0.45-0.471-0.61-0.74
				c-0.84-1.36-2.07-1.8-3.58-1.53c-0.42,0.08-0.89,0.26-1.18,0.55c-0.69,0.67-1.28,1.44-1.9,2.181c-0.36,0.43-0.75,0.63-1.38,0.63
				c-1.04,0-1.04,0-1.86,0c-0.7,0.01-1.22-0.18-1.68-0.72c-1.83-2.12-3.68-4.221-5.53-6.311c-0.37-0.42-0.43-0.8-0.17-1.31
				c1.8-3.58,3.57-7.18,5.37-10.771c1.86-3.7,3.75-7.39,5.59-11.1c0.27-0.54,0.65-0.72,1.2-0.72c0.78,0,1.56,0,2.34,0v0.01
				c0.83,0,1.66-0.05,2.48,0.03c0.3,0.02,0.7,0.27,0.84,0.53c2.39,4.69,4.75,9.41,7.12,14.12
				C35.8,25.843,37.101,28.473,38.44,31.083z M24,31.572c2.23,0,4.39-1.479,4.39-4.52c0-3.64-4.39-9.35-4.39-10.4
				c0,1.05-4.39,6.76-4.39,10.4C19.61,30.093,21.77,31.572,24,31.572z"/>
		</g>
		<g>
			<path fill="none" stroke="#EE7C22" stroke-miterlimit="10" d="M24.04,8.542c0.83,0,1.66-0.05,2.48,0.03
				c0.3,0.02,0.7,0.27,0.84,0.53c2.39,4.69,4.75,9.41,7.12,14.12c1.319,2.62,2.62,5.25,3.96,7.86c0.28,0.55,0.24,0.96-0.181,1.42
				c-1.89,2.09-3.76,4.2-5.619,6.319c-0.311,0.341-0.96,0.65-1.44,0.641c-0.53-0.01-0.7,0.01-1.38,0.01c-1.07,0-1.8-0.26-2.39-1.1
				c-0.181-0.261-0.45-0.471-0.61-0.74c-0.84-1.36-2.07-1.8-3.58-1.53c-0.42,0.08-0.89,0.26-1.18,0.55
				c-0.69,0.67-1.28,1.44-1.9,2.181c-0.36,0.43-0.75,0.63-1.38,0.63c-1.04,0-1.04,0-1.86,0c-0.7,0.01-1.22-0.18-1.68-0.72
				c-1.83-2.12-3.68-4.221-5.53-6.311c-0.37-0.42-0.43-0.8-0.17-1.31c1.8-3.58,3.57-7.18,5.37-10.771c1.86-3.7,3.75-7.39,5.59-11.1
				c0.27-0.54,0.65-0.72,1.2-0.72c0.78,0,1.56,0,2.34,0V8.542z"/>
			<path fill="none" stroke="#EE7B22" stroke-miterlimit="10" d="M24,31.572c2.23,0,4.39-1.479,4.39-4.52
				c0-3.64-4.39-9.35-4.39-10.4c0,1.05-4.39,6.76-4.39,10.4C19.61,30.093,21.77,31.572,24,31.572z"/>
		</g>
	</g>
</g>
</svg>
