<?xml version="1.0" encoding="utf-8"?>
<!-- Generator: Adobe Illustrator 16.0.3, SVG Export Plug-In . SVG Version: 6.00 Build 0)  -->
<svg version="1.2" baseProfile="tiny" id="Layer_1" xmlns="http://www.w3.org/2000/svg" xmlns:xlink="http://www.w3.org/1999/xlink"
	 x="0px" y="0px" width="48px" height="48px" viewBox="0 0 48 48" overflow="visible" xml:space="preserve">
<g>
	<path fill="#EE7B22" stroke="#EE7B22" stroke-miterlimit="10" d="M39.305,24.001c0,9.629-8.088,16.438-18.063,16.438
		c-1.217,0-1.245-0.422-0.24-0.588c8.502-1.39,14.97-7.424,14.97-15.892c0-8.436-6.419-14.449-14.874-15.878
		c-0.957-0.163-0.909-0.519,0.144-0.519C31.217,7.562,39.305,14.371,39.305,24.001z"/>
	<path fill="#EE7B22" stroke="#EE7B22" stroke-miterlimit="10" d="M8.702,23.449c-0.246,7.466,5.822,13.726,13.555,13.983
		c0.945,0.03,0.976-0.298,0.202-0.451c-6.556-1.298-11.39-6.916-11.172-13.48c0.215-6.54,5.372-11.812,11.963-12.703
		c0.746-0.102,0.718-0.379-0.098-0.406C15.418,10.135,8.949,15.981,8.702,23.449z"/>
	<path fill="#EE7B22" stroke="#EE7B22" stroke-miterlimit="10" d="M27.55,29.066c-7.067,0-13.401-2.762-16.51-6.218l0.344-2.54
		c3.373,3.657,10.015,7.588,17.766,7.542C31.317,27.836,31.137,29.066,27.55,29.066z"/>
</g>
</svg>
